<svg id="svg" xmlns="http://www.w3.org/2000/svg" xmlns:xlink="http://www.w3.org/1999/xlink" width="400" height="400" viewBox="0, 0, 400,400"><g id="svgg"><path id="path0" d="M198.087 23.828 C 199.794 57.579,184.760 81.584,146.366 106.413 L 132.060 115.665 130.212 110.567 C 129.195 107.763,128.309 102.832,128.244 99.609 C 128.086 91.828,126.752 92.176,117.360 102.453 C 102.269 118.964,92.214 142.614,86.590 174.826 C 84.319 187.827,83.458 190.394,82.264 187.717 C 74.488 170.291,59.886 233.181,63.994 266.406 C 74.276 349.577,150.317 406.632,226.753 388.526 C 282.002 375.439,323.187 328.496,334.578 265.625 C 339.559 238.134,333.141 152.045,327.415 169.531 C 321.871 186.459,318.717 184.271,311.652 158.594 C 306.642 140.386,290.559 109.375,286.125 109.375 C 285.334 109.375,283.819 113.066,282.759 117.578 C 280.425 127.507,277.954 132.632,273.597 136.574 L 270.312 139.547 270.302 127.195 C 270.284 107.770,262.871 81.710,250.279 56.807 L 245.902 48.152 241.499 58.514 C 236.087 71.248,235.361 71.056,229.931 55.452 C 224.531 39.935,219.300 31.431,208.077 19.922 C 197.032 8.595,197.311 8.486,198.087 23.828 M195.089 228.936 C 202.778 233.120,210.285 240.070,213.691 246.155 C 215.012 248.516,215.757 248.421,222.024 245.096 C 242.302 234.335,270.489 243.356,282.103 264.324 C 296.194 289.762,276.101 332.416,249.857 332.778 C 248.303 332.800,246.634 335.269,245.408 339.359 C 242.624 348.653,226.742 364.234,216.519 367.701 C 185.772 378.129,154.451 358.502,151.941 327.235 C 151.222 318.280,150.844 317.511,145.821 314.806 C 124.836 303.505,116.617 273.515,128.285 250.818 C 140.845 226.387,171.785 216.252,195.089 228.936 M167.093 271.970 C 165.057 274.006,164.052 276.734,164.358 279.392 C 165.132 286.094,187.500 286.008,187.500 279.303 C 187.500 269.786,174.094 264.968,167.093 271.970 M231.853 285.193 C 226.087 290.959,227.473 294.288,236.156 295.530 C 240.124 296.097,244.832 297.344,246.619 298.301 C 251.350 300.832,254.169 295.356,251.479 288.861 C 247.973 280.396,238.432 278.613,231.853 285.193 " stroke="none" fill="#000000" fill-rule="evenodd"></path></g></svg>